<?xml version="1.0" encoding="UTF-8" standalone="no"?>
<!-- Created with Inkscape (http://www.inkscape.org/) -->

<svg
   width="68.895401mm"
   height="42.51598mm"
   viewBox="0 0 68.895401 42.51598"
   version="1.1"
   id="svg5"
   xml:space="preserve"
   xmlns="http://www.w3.org/2000/svg"
   xmlns:svg="http://www.w3.org/2000/svg"><defs
     id="defs2" /><g
     id="layer1"><path
       id="path1080"
       style="fill:#ea141e;fill-opacity:1;stroke:none;stroke-width:0.264583px;stroke-linecap:butt;stroke-linejoin:miter;stroke-opacity:1"
       d="M 39.195021,0 0,39.19502 v 3.32073 H 11.365715 L 25.958621,27.92284 v 14.59291 h 0.37414 L 39.709721,29.1393 V 0 Z m -6.94893,12.15533 c 0.70227,0.0092 1.45459,0.0862 2.01487,0.32504 0.89643,0.38214 1.30151,1.17736 1.70687,1.97249 l -4.069,0.18707 -2.05827,2.9931 2.29185,2.47892 4.35012,-0.18707 c -0.46772,0.96662 -0.9358,1.93368 -2.44016,2.40915 -1.50437,0.47546 -4.04592,0.4595 -6.5872,0.4439 L 12.745476,37.48815 C 11.677513,37.58949 10.60991,37.69083 10.040731,37.27782 9.471554,36.86482 9.401373,35.93688 9.331214,35.00923 L 25.958621,18.3813 c 0.24945,-0.96663 0.49896,-1.93287 0.72502,-2.62671 0.22607,-0.69384 0.42839,-1.11484 0.88057,-1.62161 0.45217,-0.50677 1.15388,-1.09928 1.69964,-1.44229 0.54577,-0.34302 0.93547,-0.43633 1.82417,-0.49867 0.33327,-0.02337 0.73671,-0.04223 1.15807,-0.03669 z" /><path
       style="fill:#ffffff;fill-opacity:1;stroke:none;stroke-width:0.264583px;stroke-linecap:butt;stroke-linejoin:miter;stroke-opacity:1"
       d="m 53.881531,8e-5 h 15.01387 L 43.825511,25.0232 V 10.0561 L 53.881531,8e-5"
       id="path1082" /><path
       style="fill:#ffffff;fill-opacity:1;stroke:none;stroke-width:0.264583px;stroke-linecap:butt;stroke-linejoin:miter;stroke-opacity:1"
       d="m 59.728041,13.23661 h 9.16736 v 14.99046 l -14.28891,14.28891 -14.89693,-0.0935 15.38804,-15.38804 h -9.16735 l 13.79779,-13.79779"
       id="path1084" /></g></svg>
